<?xml version="1.0" encoding="UTF-8" standalone="no"?>
<!-- Created with Inkscape (http://www.inkscape.org/) -->

<svg
   xmlns:dc="http://purl.org/dc/elements/1.1/"
   xmlns:cc="http://creativecommons.org/ns#"
   xmlns:rdf="http://www.w3.org/1999/02/22-rdf-syntax-ns#"
   xmlns:svg="http://www.w3.org/2000/svg"
   xmlns="http://www.w3.org/2000/svg"
   xmlns:sodipodi="http://sodipodi.sourceforge.net/DTD/sodipodi-0.dtd"
   xmlns:inkscape="http://www.inkscape.org/namespaces/inkscape"
   width="100"
   height="100"
   viewBox="0 0 26.458332 26.458334"
   version="1.1"
   id="svg4673"
   inkscape:version="0.92.5 (2060ec1f9f, 2020-04-08)"
   sodipodi:docname="icon_actuator_design.svg">
  <defs
     id="defs4667" />
  <sodipodi:namedview
     id="base"
     pagecolor="#ffffff"
     bordercolor="#666666"
     borderopacity="1.0"
     inkscape:pageopacity="0.0"
     inkscape:pageshadow="2"
     inkscape:zoom="7.9195959"
     inkscape:cx="17.979364"
     inkscape:cy="55.524527"
     inkscape:document-units="px"
     inkscape:current-layer="layer1"
     showgrid="false"
     units="px"
     inkscape:window-width="1848"
     inkscape:window-height="1016"
     inkscape:window-x="72"
     inkscape:window-y="27"
     inkscape:window-maximized="1"
     showguides="true"
     inkscape:pagecheckerboard="true" />
  <metadata
     id="metadata4670">
    <rdf:RDF>
      <cc:Work
         rdf:about="">
        <dc:format>image/svg+xml</dc:format>
        <dc:type
           rdf:resource="http://purl.org/dc/dcmitype/StillImage" />
        <dc:title></dc:title>
      </cc:Work>
    </rdf:RDF>
  </metadata>
  <g
     inkscape:label="Layer 1"
     inkscape:groupmode="layer"
     id="layer1"
     transform="translate(0,-270.54165)">
    <g
       id="g1064"
       transform="rotate(-35.015411,8.8277173,287.91877)">
      <path
         inkscape:connector-curvature="0"
         id="path913"
         d="m 9.7830785,279.91001 -0.7470084,1.77414 a 6.4468075,6.4468075 0 0 0 -0.2481241,-0.0124 6.4468075,6.4468075 0 0 0 -0.8878242,0.0685 L 6.9821751,280.0531 a 8.2753294,8.2753294 0 0 0 -1.4360321,0.46123 l 0.2390876,1.90405 a 6.4468075,6.4468075 0 0 0 -0.9593628,0.61785 l -1.6367154,-1.00078 a 8.2753294,8.2753294 0 0 0 -1.0101926,1.11976 l 1.1604224,1.5313 A 6.4468075,6.4468075 0 0 0 2.816778,285.6982 l -1.92587968,-0.0486 a 8.2753294,8.2753294 0 0 0 -0.3113788,1.47369 l 1.77414378,0.74701 a 6.4468075,6.4468075 0 0 0 -0.012425,0.24813 6.4468075,6.4468075 0 0 0 0.068526,0.88782 l -1.68716836,0.91795 a 8.2753294,8.2753294 0 0 0 0.46123216,1.43602 l 1.904042,-0.23909 a 6.4468075,6.4468075 0 0 0 0.6178629,0.95936 l -1.0007799,1.63672 a 8.2753294,8.2753294 0 0 0 1.1197587,1.01017 L 5.3560024,293.567 a 6.4468075,6.4468075 0 0 0 1.0116985,0.5226 l -0.048571,1.92588 a 8.2753294,8.2753294 0 0 0 1.4736843,0.31138 l 0.7470071,-1.77415 a 6.4468075,6.4468075 0 0 0 0.2481242,0.0124 6.4468075,6.4468075 0 0 0 0.8878254,-0.0685 l 0.9179451,1.68718 a 8.2753294,8.2753294 0 0 0 1.436033,-0.46123 l -0.239088,-1.90405 a 6.4468075,6.4468075 0 0 0 0.959362,-0.61787 l 1.636716,1.00079 a 8.2753294,8.2753294 0 0 0 1.010193,-1.11976 l -1.160423,-1.53129 a 6.4468075,6.4468075 0 0 0 0.522605,-1.0117 l 1.925879,0.0486 a 8.2753294,8.2753294 0 0 0 0.311379,-1.47368 l -1.774143,-0.74702 a 6.4468075,6.4468075 0 0 0 0.01243,-0.24812 6.4468075,6.4468075 0 0 0 -0.06852,-0.88783 l 1.687168,-0.91795 a 8.2753294,8.2753294 0 0 0 -0.461232,-1.43602 l -1.904042,0.23908 a 6.4468075,6.4468075 0 0 0 -0.617863,-0.95936 l 1.00078,-1.63672 a 8.2753294,8.2753294 0 0 0 -1.120135,-1.01019 l -1.530914,1.16043 a 6.4468075,6.4468075 0 0 0 -1.0117,-0.5226 l 0.04857,-1.92589 a 8.2753294,8.2753294 0 0 0 -1.4736826,-0.31138 z"
         style="fill:none;stroke:#000000;stroke-width:0.79374999;stroke-miterlimit:4;stroke-dasharray:none" />
      <circle
         r="4.5474453"
         cy="288.11844"
         cx="8.7879457"
         id="path913-3-6"
         style="fill:none;stroke:#000000;stroke-width:1.05833328;stroke-miterlimit:4;stroke-dasharray:none" />
    </g>
    <g
       id="g1157"
       transform="rotate(-8.2841319,21.293687,277.18833)">
      <circle
         r="2.82394"
         cy="278.69968"
         cx="19.679979"
         id="path913-3-6-5"
         style="fill:none;stroke:#000000;stroke-width:0.79374999;stroke-miterlimit:4;stroke-dasharray:none" />
      <path
         inkscape:connector-curvature="0"
         id="path1033"
         d="m 20.093484,272.68009 -0.819384,1.72844 a 4.3144379,4.3144379 0 0 0 -1.00998,0.22073 l -1.465597,-1.23143 a 6.0402132,6.0402132 0 0 0 -1.082225,0.75403 l 0.641493,1.79779 a 4.3144379,4.3144379 0 0 0 -0.556542,0.8731 l -1.910685,0.16591 a 6.0402132,6.0402132 0 0 0 -0.230169,1.29751 l 1.728439,0.81939 a 4.3144379,4.3144379 0 0 0 0.221093,1.00998 l -1.231799,1.4656 a 6.0402132,6.0402132 0 0 0 0.754036,1.08222 l 1.798143,-0.6415 a 4.3144379,4.3144379 0 0 0 0.872751,0.55654 l 0.16591,1.91069 a 6.0402132,6.0402132 0 0 0 1.297509,0.23017 l 0.819384,-1.72844 a 4.3144379,4.3144379 0 0 0 1.00998,-0.22109 l 1.465597,1.2318 a 6.0402132,6.0402132 0 0 0 1.082226,-0.75404 l -0.641493,-1.79778 a 4.3144379,4.3144379 0 0 0 0.556541,-0.87312 l 1.910686,-0.1659 a 6.0402132,6.0402132 0 0 0 0.230168,-1.29751 l -1.728438,-0.81939 a 4.3144379,4.3144379 0 0 0 -0.221093,-1.00998 l 1.231799,-1.46559 a 6.0402132,6.0402132 0 0 0 -0.754037,-1.08223 l -1.79778,0.64149 a 4.3144379,4.3144379 0 0 0 -0.873114,-0.55653 l -0.16591,-1.91069 a 6.0402132,6.0402132 0 0 0 -1.297509,-0.23017 z"
         style="fill:none;stroke:#000000;stroke-width:0.66145831;stroke-miterlimit:4;stroke-dasharray:none" />
    </g>
    <g
       id="g1085"
       transform="rotate(30.330129,8.2947205,305.02928)">
      <g
         id="g1089"
         transform="matrix(0.72101733,-0.35493102,0.35493102,0.72101733,-97.779493,76.435022)">
        <g
           id="g1153">
          <circle
             transform="rotate(26.209373)"
             r="1.35721"
             cy="249.94472"
             cx="116.39892"
             id="path1091"
             style="fill:none;stroke:#000000;stroke-width:0.6584599;stroke-miterlimit:4;stroke-dasharray:none" />
          <path
             inkscape:connector-curvature="0"
             id="path1091-1"
             d="m -3.4281212,271.75579 -1.5310627,1.24954 a 2.8339896,2.8339896 0 0 0 -1.5338802,-0.13082 l -1.031651,-1.59367 a 4.6511769,4.6511769 45 0 0 -1.3861247,0.78621 l 0.7174685,1.84754 a 2.8339896,2.8339896 0 0 0 -0.3063996,0.48848 2.8339896,2.8339896 0 0 0 -0.2614851,0.86751 l -1.843479,0.49084 a 4.6511769,4.6511769 45 0 0 0.314575,1.56965 l 1.9738105,-0.11061 a 2.8339896,2.8339896 0 0 0 1.0832398,0.96327 l -0.1031725,1.91015 a 4.6511769,4.6511769 45 0 0 1.5837895,0.20269 l 0.5018142,-1.90026 a 2.8339896,2.8339896 0 0 0 1.3078356,-0.75093 l 1.7817733,0.68718 a 4.6511769,4.6511769 45 0 0 0.3765907,-0.62379 4.6511769,4.6511769 45 0 0 0.3052788,-0.80797 l -1.652116,-1.06413 a 2.8339896,2.8339896 0 0 0 -0.3338687,-1.52755 l 1.1989438,-1.47609 a 4.6511769,4.6511769 45 0 0 -1.1618802,-1.07724 z"
             style="fill:none;stroke:#000000;stroke-width:0.6584599;stroke-miterlimit:4;stroke-dasharray:none" />
        </g>
      </g>
    </g>
  </g>
</svg>
