<?xml version="1.0" encoding="UTF-8" standalone="no"?>
<!-- Created with Inkscape (http://www.inkscape.org/) -->

<svg
   xmlns:dc="http://purl.org/dc/elements/1.1/"
   xmlns:cc="http://creativecommons.org/ns#"
   xmlns:rdf="http://www.w3.org/1999/02/22-rdf-syntax-ns#"
   xmlns:svg="http://www.w3.org/2000/svg"
   xmlns="http://www.w3.org/2000/svg"
   xmlns:sodipodi="http://sodipodi.sourceforge.net/DTD/sodipodi-0.dtd"
   xmlns:inkscape="http://www.inkscape.org/namespaces/inkscape"
   width="100"
   height="100"
   viewBox="0 0 26.458332 26.458334"
   version="1.1"
   id="svg4673"
   inkscape:version="0.92.5 (2060ec1f9f, 2020-04-08)"
   sodipodi:docname="icon_robot_design2.svg">
  <defs
     id="defs4667" />
  <sodipodi:namedview
     id="base"
     pagecolor="#ffffff"
     bordercolor="#666666"
     borderopacity="1.0"
     inkscape:pageopacity="0.0"
     inkscape:pageshadow="2"
     inkscape:zoom="5.6568543"
     inkscape:cx="23.302799"
     inkscape:cy="55.526065"
     inkscape:document-units="px"
     inkscape:current-layer="layer1"
     showgrid="false"
     units="px"
     inkscape:window-width="1848"
     inkscape:window-height="1016"
     inkscape:window-x="72"
     inkscape:window-y="27"
     inkscape:window-maximized="1"
     showguides="true"
     inkscape:pagecheckerboard="true" />
  <metadata
     id="metadata4670">
    <rdf:RDF>
      <cc:Work
         rdf:about="">
        <dc:format>image/svg+xml</dc:format>
        <dc:type
           rdf:resource="http://purl.org/dc/dcmitype/StillImage" />
        <dc:title />
      </cc:Work>
    </rdf:RDF>
  </metadata>
  <g
     inkscape:label="Layer 1"
     inkscape:groupmode="layer"
     id="layer1"
     transform="translate(0,-270.54165)">
    <path
       style="fill:none;stroke:#000000;stroke-width:1.58749998;stroke-miterlimit:4;stroke-dasharray:none"
       id="path913-3-6-36"
       r="11.217037"
       cy="100.04688"
       cx="265.87875"
       d=""
       inkscape:connector-curvature="0" />
    <path
       style="fill:none;stroke:#000000;stroke-width:1.05497408;stroke-miterlimit:4;stroke-dasharray:none"
       id="path913-3-6-7-56-2-1"
       ry="9.3802719"
       rx="13.240487"
       cy="64.123314"
       cx="253.84297"
       d=""
       inkscape:connector-curvature="0" />
    <ellipse
       style="fill:none;stroke:#000000;stroke-width:0.84700739;stroke-miterlimit:4;stroke-dasharray:none"
       id="path832-3-3"
       cx="177.29118"
       cy="230.99875"
       rx="0.86274356"
       ry="0.8627435"
       transform="rotate(35.937573)" />
    <path
       style="fill:none;stroke:#000000;stroke-width:0.84700739;stroke-miterlimit:4;stroke-dasharray:none"
       d="m 6.9176096,291.10193 -5.0261521,2.63823 0.4361966,0.83102 5.0261508,-2.63823 z"
       id="rect851-7"
       inkscape:connector-curvature="0" />
    <ellipse
       style="fill:none;stroke:#000000;stroke-width:0.84700739;stroke-miterlimit:4;stroke-dasharray:none"
       id="path832-3-6-5"
       cx="261.43616"
       cy="135.66666"
       rx="0.71322638"
       ry="0.71322626"
       transform="rotate(62.305015)" />
    <path
       style="fill:none;stroke:#000000;stroke-width:0.84700739;stroke-linecap:butt;stroke-linejoin:miter;stroke-miterlimit:4;stroke-dasharray:none;stroke-opacity:1"
       d="m 13.878766,284.62495 -0.05242,-0.0367 a 1.0332677,1.0332677 0 0 1 -1.291915,0.0647 1.0332677,1.0332677 0 0 1 -0.364716,-1.18997 l -0.915985,0.14655 -4.1483767,6.83718 0.1714417,0.12428 a 0.86274355,0.8627435 35.937573 0 1 1.2005689,-0.18677 0.86274355,0.8627435 35.937573 0 1 0.1960019,1.19909 l 0.1451049,0.10522 5.3850673,-5.97072 z"
       id="path868-6"
       inkscape:connector-curvature="0"
       inkscape:transform-center-x="-0.14736019"
       inkscape:transform-center-y="4.5644571" />
    <circle
       style="fill:none;stroke:#000000;stroke-width:0.84700739;stroke-miterlimit:4;stroke-dasharray:none"
       id="path832-5"
       cx="-18.792599"
       cy="283.49637"
       r="1.0332677"
       transform="rotate(-6.4464204)" />
    <ellipse
       style="fill:none;stroke:#000000;stroke-width:0.84700739;stroke-miterlimit:4;stroke-dasharray:none"
       id="path832-3-3-0"
       cx="-221.08188"
       cy="187.3018"
       rx="0.86274356"
       ry="0.8627435"
       transform="rotate(-53.760473)" />
    <path
       style="fill:none;stroke:#000000;stroke-width:0.84700739;stroke-miterlimit:4;stroke-dasharray:none"
       d="m 19.392231,289.42293 -3.855217,4.16651 0.688889,0.63741 3.855206,-4.16651 z"
       id="rect851-7-7"
       inkscape:connector-curvature="0" />
    <ellipse
       style="fill:none;stroke:#000000;stroke-width:0.84700739;stroke-miterlimit:4;stroke-dasharray:none"
       id="path832-3-6-5-9"
       cx="211.26627"
       cy="205.76257"
       rx="0.71322638"
       ry="0.71322626"
       transform="rotate(42.777637)" />
    <path
       style="fill:none;stroke:#000000;stroke-width:0.84700739;stroke-linecap:butt;stroke-linejoin:miter;stroke-miterlimit:4;stroke-dasharray:none;stroke-opacity:1"
       d="m 15.041638,282.77914 -0.289504,0.0844 -0.232706,0.55253 c -0.09293,0.22057 -0.221907,0.40032 -0.357332,0.51725 a 1.0332677,1.0332677 0 0 1 -0.194106,0.50953 1.0332677,1.0332677 0 0 1 -0.135102,0.15055 l 0.04577,0.0315 0.324797,1.09295 -0.458245,0.50787 5.988056,3.67644 0.125177,-0.1704 a 0.8627435,0.86274355 36.239527 0 1 -0.18032,-1.20158 0.8627435,0.86274355 36.239527 0 1 1.199927,-0.1897 l 0.105877,-0.14447 z"
       id="path868-6-3"
       inkscape:connector-curvature="0" />
    <circle
       style="fill:none;stroke:#000000;stroke-width:0.84700739;stroke-miterlimit:4;stroke-dasharray:none"
       id="path832-5-6"
       cx="13.135488"
       cy="283.85132"
       r="1.0332677" />
    <circle
       style="fill:none;stroke:#000000;stroke-width:0.84700739;stroke-miterlimit:4;stroke-dasharray:none"
       id="path832-1"
       cx="16.845364"
       cy="275.25369"
       r="1.0332677" />
    <ellipse
       style="fill:none;stroke:#000000;stroke-width:0.84700739;stroke-miterlimit:4;stroke-dasharray:none"
       id="path832-3-7"
       cx="260.52563"
       cy="-83.496407"
       rx="0.86274356"
       ry="0.8627435"
       transform="rotate(105.61884)" />
    <g
       id="g1251"
       inkscape:transform-center-x="2.0636063"
       inkscape:transform-center-y="3.6166103"
       transform="matrix(0.24690425,-1.0381387,1.0381387,0.24690425,-276.08739,216.85454)">
      <rect
         transform="rotate(105.61884)"
         ry="0"
         rx="0"
         y="-82.8423"
         x="259.94855"
         height="4.4205265"
         width="0.89504009"
         id="rect851-8"
         style="fill:none;stroke:#000000;stroke-width:0.79374999;stroke-miterlimit:4;stroke-dasharray:none" />
      <circle
         transform="rotate(105.61884)"
         r="0.83004665"
         cy="-77.576004"
         cx="260.39648"
         id="path832-3-6-9"
         style="fill:none;stroke:#000000;stroke-width:0.79374999;stroke-miterlimit:4;stroke-dasharray:none" />
    </g>
    <path
       style="fill:none;stroke:#000000;stroke-width:0.84700739;stroke-linecap:butt;stroke-linejoin:miter;stroke-miterlimit:4;stroke-dasharray:none;stroke-opacity:1"
       d="m 10.565623,272.35312 -0.05735,0.20403 a 0.8627435,0.86274355 15.61884 0 1 0.592796,1.06097 0.8627435,0.86274355 15.61884 0 1 -1.057106,0.59997 l -0.04797,0.17259 3.1635948,1.28706 0.506218,-1.20159 c 0.299406,-0.71064 0.764509,-1.22897 1.174011,-1.36315 z m 4.933157,0.87734 0.597206,0.2509 -0.155506,-0.1726 z m 0.890019,0.57735 c -0.04028,0.026 -0.08016,0.058 -0.119662,0.0954 0.03944,-0.037 0.07944,-0.0695 0.119662,-0.0954 z m -0.127382,0.10308 c -0.03432,0.0332 -0.06778,0.07 -0.10036,0.11084 0.03248,-0.0404 0.06616,-0.078 0.10036,-0.11084 z m -0.124073,0.14061 c -0.0293,0.0389 -0.05698,0.0811 -0.08382,0.12574 0.02684,-0.0444 0.05454,-0.0871 0.08382,-0.12574 z m -0.103669,0.15716 c -0.03239,0.0569 -0.06286,0.1162 -0.08988,0.18032 0.02702,-0.064 0.05753,-0.12379 0.08988,-0.18032 z"
       id="path868-2"
       inkscape:connector-curvature="0" />
    <ellipse
       style="fill:none;stroke:#000000;stroke-width:0.84700739;stroke-miterlimit:4;stroke-dasharray:none"
       id="path832-3-7-9"
       cx="-125.3746"
       cy="252.38075"
       rx="0.86274356"
       ry="0.8627435"
       transform="rotate(-30.546875)" />
    <g
       id="g1259"
       inkscape:transform-center-x="-2.9117632"
       inkscape:transform-center-y="-2.9685533"
       transform="matrix(-0.27435314,-1.0312246,1.0312246,-0.27435314,-263.50515,378.57397)">
      <rect
         transform="rotate(-30.546875)"
         ry="0"
         rx="0"
         y="252.60725"
         x="-125.84202"
         height="4.4205265"
         width="0.89504009"
         id="rect851-8-28"
         style="fill:none;stroke:#000000;stroke-width:0.79374999;stroke-miterlimit:4;stroke-dasharray:none" />
      <circle
         transform="rotate(-30.546875)"
         r="0.83004665"
         cy="257.87354"
         cx="-125.39408"
         id="path832-3-6-9-73"
         style="fill:none;stroke:#000000;stroke-width:0.79374999;stroke-miterlimit:4;stroke-dasharray:none" />
    </g>
    <path
       style="fill:none;stroke:#000000;stroke-width:0.84700739;stroke-linecap:butt;stroke-linejoin:miter;stroke-miterlimit:4;stroke-dasharray:none;stroke-opacity:1"
       d="m 17.820881,274.91841 a 1.0332677,1.0332677 0 0 1 0.0579,0.33527 1.0332677,1.0332677 0 0 1 -1.033394,1.0334 1.0332677,1.0332677 0 0 1 -0.654555,-0.23492 l -0.03805,1.15085 3.21543,4.41205 0.182526,-0.10753 a 0.8627435,0.86274355 59.453125 0 1 0.307702,-1.17622 0.8627435,0.86274355 59.453125 0 1 1.177869,0.29944 l 0.154403,-0.091 -2.225049,-4.98995 z"
       id="path868-2-6"
       inkscape:connector-curvature="0" />
    <circle
       style="fill:none;stroke:#000000;stroke-width:0.84700739;stroke-miterlimit:4;stroke-dasharray:none"
       id="path832-1-1"
       cx="16.845364"
       cy="275.25369"
       r="1.0332677" />
    <path
       style="fill:none;stroke:#000000;stroke-width:0.84700739;stroke-miterlimit:4;stroke-dasharray:none"
       d="m 16.628674,273.7262 c -0.229207,-0.006 -0.516335,0.26333 -0.684884,0.66338 l -3.444828,8.17561 c -0.08746,0.20758 -0.124899,0.41158 -0.120214,0.58397 a 1.0332677,1.0332677 0 0 1 0.756572,-0.33087 1.0332677,1.0332677 0 0 1 1.033393,1.03285 1.0332677,1.0332677 0 0 1 -0.0038,0.0788 c 0.134284,-0.117 0.26236,-0.29506 0.354575,-0.51394 l 2.257032,-5.35665 -0.623676,-0.85639 0.03805,-1.15085 a 1.0332677,1.0332677 0 0 0 0.654556,0.23492 1.0332677,1.0332677 0 0 0 0.899946,-0.52662 l 0.09099,-0.21507 a 1.0332677,1.0332677 0 0 0 0.04246,-0.29171 1.0332677,1.0332677 0 0 0 -0.0579,-0.33527 l 0.213407,0.118 c 0.105215,-0.37975 0.04907,-0.7174 -0.153851,-0.80288 l -1.158018,-0.48747 c -0.02987,-0.0126 -0.06099,-0.019 -0.09374,-0.0198 z"
       id="rect828-0"
       inkscape:connector-curvature="0" />
    <path
       inkscape:connector-curvature="0"
       style="fill:none;stroke:#000000;stroke-width:0.84700739;stroke-miterlimit:4;stroke-dasharray:none"
       d="m 15.225596,273.115 c -0.464039,-0.1955 -1.159579,0.41168 -1.559643,1.36124 l -1.524414,3.61821 c -0.400065,0.94956 -0.348735,1.87141 0.115304,2.06692 l 1.065645,0.44897 2.62105,-6.22109 c 0.192628,-0.4572 0.540202,-0.74417 0.779144,-0.6435 z"
       id="rect828-6" />
  </g>
</svg>
